<svg xmlns:dc="http://purl.org/dc/elements/1.1/" xmlns:cc="http://creativecommons.org/ns#" xmlns:rdf="http://www.w3.org/1999/02/22-rdf-syntax-ns#" xmlns:svg="http://www.w3.org/2000/svg" xmlns="http://www.w3.org/2000/svg" xmlns:sodipodi="http://sodipodi.sourceforge.net/DTD/sodipodi-0.dtd" xmlns:inkscape="http://www.inkscape.org/namespaces/inkscape" viewBox="0 0 16.933333 21.1666675" version="1.1" x="0px" y="0px"><g transform="translate(0,-280.06664)"><path d="m 0.51339675,290.71679 c -0.137243,0 -0.248565,-0.11132 -0.248565,-0.24857 0,-0.13725 0.111322,-0.24856 0.248565,-0.24856 H 10.811665 c 0.603156,0 1.149297,0.24461 1.544599,0.63991 0.395227,0.39526 0.639841,0.94147 0.639841,1.54468 0,0.60313 -0.244614,1.14929 -0.639841,1.5446 -0.395302,0.39522 -0.941443,0.63983 -1.544599,0.63983 -0.603131,0 -1.1492733,-0.24461 -1.5446003,-0.63991 -0.395304,-0.39523 -0.639915,-0.94144 -0.639915,-1.54452 0,-0.13725 0.111321,-0.24856 0.248565,-0.24856 0.137242,0 0.248564,0.11131 0.248564,0.24856 0,0.4659 0.188939,0.8879 0.494222,1.19311 0.305255,0.30525 0.7272013,0.49422 1.1931643,0.49422 0.465987,0 0.887907,-0.18897 1.193189,-0.49414 0.305183,-0.30529 0.494146,-0.72723 0.494146,-1.19319 0,-0.46605 -0.188889,-0.88799 -0.494146,-1.19324 -0.305282,-0.30529 -0.727202,-0.49422 -1.193189,-0.49422 z m 0,-5.26167 c -0.137243,0 -0.248565,-0.11131 -0.248565,-0.24856 0,-0.13724 0.111322,-0.24854 0.248565,-0.24854 H 8.5970007 c 0.254978,0 0.485921,-0.10344 0.65289,-0.27041 0.166969,-0.16698 0.270387,-0.39799 0.270387,-0.65294 0,-0.25497 -0.103418,-0.48599 -0.270387,-0.65296 -0.166969,-0.16697 -0.397912,-0.27039 -0.65289,-0.27039 -0.254952,0 -0.485894,0.10342 -0.652888,0.27039 -0.166969,0.16697 -0.270386,0.39799 -0.270386,0.65296 0,0.13724 -0.111321,0.24853 -0.248565,0.24853 -0.137219,0 -0.24854,-0.11129 -0.24854,-0.24853 0,-0.39215 0.159065,-0.74736 0.41608,-1.00437 0.257016,-0.25702 0.612179,-0.41608 1.004299,-0.41608 0.392146,0 0.747286,0.15906 1.004301,0.41608 0.257014,0.25701 0.4160803,0.61222 0.4160803,1.00437 0,0.39212 -0.1590663,0.74736 -0.4160803,1.00437 -0.257015,0.25699 -0.612155,0.41608 -1.004301,0.41608 z m 0,2.63075 c -0.137243,0 -0.248565,-0.1113 -0.248565,-0.24854 0,-0.13725 0.111322,-0.24856 0.248565,-0.24856 H 13.864503 c 0.637032,0 1.213893,-0.25829 1.63124,-0.67564 0.417372,-0.41737 0.675656,-0.99423 0.675656,-1.63124 0,-0.63703 -0.258284,-1.21389 -0.675656,-1.63118 -0.417347,-0.41735 -0.994208,-0.67565 -1.63124,-0.67565 -0.637032,0 -1.213893,0.2583 -1.631241,0.67557 -0.417299,0.41737 -0.675581,0.99423 -0.675581,1.63126 0,0.13722 -0.111296,0.24855 -0.24854,0.24855 -0.137244,0 -0.248564,-0.11133 -0.248564,-0.24855 0,-0.7742 0.31393,-1.47528 0.82125,-1.98268 0.507418,-0.50731 1.208474,-0.82127 1.982676,-0.82127 0.774201,0 1.475281,0.31396 1.982675,0.82135 0.507394,0.50732 0.821324,1.2084 0.821324,1.9826 0,0.77417 -0.31393,1.47526 -0.821324,1.98265 -0.507394,0.50739 -1.208474,0.82133 -1.982675,0.82133 z" style="" fill="#000000" fill-rule="evenodd" stroke-width="0.24853973"/></g><text x="0" y="31.933334" fill="#000000" font-size="5px" font-weight="bold" font-family="'Helvetica Neue', Helvetica, Arial-Unicode, Arial, Sans-serif">Created by Alvida Biersack</text><text x="0" y="36.933334" fill="#000000" font-size="5px" font-weight="bold" font-family="'Helvetica Neue', Helvetica, Arial-Unicode, Arial, Sans-serif">from the Noun Project</text></svg>